Genre:Comedy | Romance
Language:English  http://www.imdb.com/title/tt1447793/
Source:BluRay.x264-SWAGGERHD
Subtitles:Romana


Format : MPEG-4
Format profile : Base Media
Codec ID : isom
File size : 1.59 GiB
Duration : 1h 24mn
Overall bit rate : 2 706 Kbps
Movie name : My.Girlfriends.Boyfriend.2010.720p.BRRip.x264.Feel-free


Video
Format settings, CABAC : Yes
Format settings, ReFrames : 4 frames
Format settings, GOP : M=1, N=16
Codec ID : avc1
Codec ID/Info : Advanced Video Coding
Duration : 1h 24mn
Bit rate mode : Variable
Bit rate : 2 300 Kbps
Width : 1 280 pixels
Height : 720 pixels
Display aspect ratio : 16:9
Frame rate mode : Constant
Frame rate : 23.976 fps
Color space : YUV
Chroma subsampling : 4:2:0
Bit depth : 8 bits
Scan type : Progressive
Bits/(Pixel*Frame) : 0.104
Stream size : 1.36 GiB (86%)
Writing library : x264

Audio
ID : 2
Format : AAC
Format/Info : Advanced Audio Codec
Format version : Version 4
Format profile : LC
Codec ID : 40
Duration : 1h 24mn
Bit rate mode : Variable
Bit rate : 384 Kbps
Channel(s) : 6 channels
Channel positions : Front: L C R, Side: L R, LFE
Sampling rate : 48.0 KHz
Stream size : 232 MiB (14%)



Plot:
esse meets Ethan, someone she could finally fall in love with, but then she meets Troy, and now she has a dilemma
 
http://rapidhdd.com/images/202191vlcsnap-00001.png 
http://www.rapidhdd.com/images/209924vlcsnap-00003.png 
http://www.rapidhdd.com/images/153883vlcsnap-00002.png 
http://www.rapidhdd.com/images/446300vlcsnap-00004.png 
http://www.rapidhdd.com/images/872277vlcsnap-00006.png